<svg width="64" height="52" viewBox="0 0 64 52" fill="none" xmlns="http://www.w3.org/2000/svg">
<path d="M12 2C12 1.46957 12.2107 0.96086 12.5858 0.585787C12.9609 0.210714 13.4696 0 14 0H26C26.5304 0 27.0391 0.210714 27.4142 0.585787C27.7893 0.96086 28 1.46957 28 2V14C28 14.5304 27.7893 15.0391 27.4142 15.4142C27.0391 15.7893 26.5304 16 26 16H14C13.4696 16 12.9609 15.7893 12.5858 15.4142C12.2107 15.0391 12 14.5304 12 14V2ZM38 0C37.4696 0 36.9609 0.210714 36.5858 0.585787C36.2107 0.96086 36 1.46957 36 2V14C36 14.5304 36.2107 15.0391 36.5858 15.4142C36.9609 15.7893 37.4696 16 38 16H50C50.5304 16 51.0391 15.7893 51.4142 15.4142C51.7893 15.0391 52 14.5304 52 14V2C52 1.46957 51.7893 0.96086 51.4142 0.585787C51.0391 0.210714 50.5304 0 50 0H38ZM40 12V4H48V12H40ZM0 36C0 31.7565 1.68571 27.6869 4.68629 24.6863C7.68687 21.6857 11.7565 20 16 20H48C52.2435 20 56.3131 21.6857 59.3137 24.6863C62.3143 27.6869 64 31.7565 64 36C64 40.2435 62.3143 44.3131 59.3137 47.3137C56.3131 50.3143 52.2435 52 48 52H16C11.7565 52 7.68687 50.3143 4.68629 47.3137C1.68571 44.3131 0 40.2435 0 36ZM20 36C20 34.9391 19.5786 33.9217 18.8284 33.1716C18.0783 32.4214 17.0609 32 16 32C14.9391 32 13.9217 32.4214 13.1716 33.1716C12.4214 33.9217 12 34.9391 12 36C12 37.0609 12.4214 38.0783 13.1716 38.8284C13.9217 39.5786 14.9391 40 16 40C17.0609 40 18.0783 39.5786 18.8284 38.8284C19.5786 38.0783 20 37.0609 20 36ZM36 36C36 34.9391 35.5786 33.9217 34.8284 33.1716C34.0783 32.4214 33.0609 32 32 32C30.9391 32 29.9217 32.4214 29.1716 33.1716C28.4214 33.9217 28 34.9391 28 36C28 37.0609 28.4214 38.0783 29.1716 38.8284C29.9217 39.5786 30.9391 40 32 40C33.0609 40 34.0783 39.5786 34.8284 38.8284C35.5786 38.0783 36 37.0609 36 36ZM48 40C49.0609 40 50.0783 39.5786 50.8284 38.8284C51.5786 38.0783 52 37.0609 52 36C52 34.9391 51.5786 33.9217 50.8284 33.1716C50.0783 32.4214 49.0609 32 48 32C46.9391 32 45.9217 32.4214 45.1716 33.1716C44.4214 33.9217 44 34.9391 44 36C44 37.0609 44.4214 38.0783 45.1716 38.8284C45.9217 39.5786 46.9391 40 48 40Z" fill="white"/>
</svg>
