<svg width="79" height="58" viewBox="0 0 79 58" fill="none" xmlns="http://www.w3.org/2000/svg">
<path d="M57.3333 10.75H68.0833L78.8333 25.284V46.5833H71.5413C71.1098 49.5686 69.6172 52.2985 67.3369 54.273C65.0566 56.2474 62.1413 57.3341 59.125 57.3341C56.1087 57.3341 53.1934 56.2474 50.9131 54.273C48.6328 52.2985 47.1402 49.5686 46.7088 46.5833H28.5413C28.1153 49.5729 26.6249 52.3083 24.344 54.2873C22.0631 56.2662 19.1447 57.3558 16.125 57.3558C13.1053 57.3558 10.1869 56.2662 7.90598 54.2873C5.62506 52.3083 4.13474 49.5729 3.70875 46.5833H0V3.58333C0 2.63297 0.377529 1.72154 1.04953 1.04953C1.72154 0.377529 2.63297 0 3.58333 0H53.75C54.7004 0 55.6118 0.377529 56.2838 1.04953C56.9558 1.72154 57.3333 2.63297 57.3333 3.58333V10.75ZM57.3333 17.9167V28.6667H71.6667V27.6454L64.4713 17.9167H57.3333Z" fill="white"/>
</svg>
