<svg width="70" height="70" viewBox="0 0 70 70" fill="none" xmlns="http://www.w3.org/2000/svg">
<path d="M35 0L65.3109 17.5V52.5L35 70L4.68911 52.5V17.5L35 0Z" fill="url(#paint0_linear_88_2)"/>
<path d="M22.8954 24.0369L27.381 29.9558L33.1793 24.0369H22.8954ZM36.9413 24.0369L42.6631 29.877L47.0188 24.0368H36.9412L36.9413 24.0369ZM35.0603 24.0995L28.7726 30.5172H41.3479L35.0603 24.0995ZM48.2643 24.6862L43.9132 30.5171H52.7034L48.2643 24.6862ZM21.6892 24.7419L17.4009 30.5171H26.0681L21.6892 24.7419ZM17.3474 31.904L32.8151 48.8562L26.6388 31.9039H17.3475L17.3474 31.904ZM28.1138 31.904L35.0602 50.9667L42.0065 31.904H28.114H28.1138ZM43.4816 31.904L37.3055 48.8562L52.7731 31.9039H43.4817L43.4816 31.904Z" fill="white"/>
<defs>
<linearGradient id="paint0_linear_88_2" x1="35" y1="0" x2="35" y2="70" gradientUnits="userSpaceOnUse">
<stop stop-color="#C2E8FF"/>
<stop offset="1" stop-color="#69B8FF"/>
</linearGradient>
</defs>
</svg>
