<svg width="66" height="66" viewBox="0 0 66 66" fill="none" xmlns="http://www.w3.org/2000/svg">
<path d="M64.5978 51.0032L49.5037 35.9098C46.5261 32.9323 42.0791 32.3523 38.4957 34.1182L24.7551 20.3781V12.3738L8.25599 0L0.00644486 8.24919L12.3808 24.7476H20.3854L34.126 38.4876C32.373 42.0709 32.9402 46.5177 35.9177 49.4952L51.0118 64.5886C52.8937 66.4705 55.9357 66.4705 57.8048 64.5886L64.5978 57.7959C66.4668 55.9141 66.4668 52.8722 64.5978 51.0032ZM42.7623 29.0011C46.4101 29.0011 49.8388 30.4189 52.4168 32.9968L54.9174 35.4973C56.9541 34.6079 58.8875 33.3706 60.5632 31.6949C65.3454 26.913 66.9695 20.1847 65.4485 14.0752C65.1649 12.9151 63.7084 12.5156 62.8576 13.3663L53.2675 22.956L44.5153 21.4995L43.0587 12.7476L52.6488 3.15789C53.4996 2.3072 53.0871 0.850698 51.9141 0.554243C45.8043 -0.953813 39.0758 0.670247 34.3065 5.43931C30.6329 9.11278 28.9056 13.9592 28.9958 18.7927L39.5785 29.3749C40.6225 29.13 41.7053 29.0011 42.7623 29.0011ZM29.3697 39.5704L22.0611 32.2621L2.41686 51.9184C-0.805619 55.1407 -0.805619 60.3609 2.41686 63.5832C5.63933 66.8056 10.8597 66.8056 14.0822 63.5832L30.0141 47.652C29.0345 45.087 28.738 42.29 29.3697 39.5704ZM8.25599 60.8378C6.55452 60.8378 5.16241 59.4458 5.16241 57.7444C5.16241 56.0301 6.54163 54.6509 8.25599 54.6509C9.97034 54.6509 11.3496 56.0301 11.3496 57.7444C11.3496 59.4458 9.97034 60.8378 8.25599 60.8378Z" fill="white"/>
</svg>
