<svg width="56" height="45" viewBox="0 0 56 45" fill="none" xmlns="http://www.w3.org/2000/svg">
<path d="M51.6667 0H3.44444C2.53092 0 1.65481 0.362896 1.00885 1.00885C0.362896 1.65481 0 2.53092 0 3.44444V41.3333C0 42.2469 0.362896 43.123 1.00885 43.7689C1.65481 44.4149 2.53092 44.7778 3.44444 44.7778H51.6667C52.5802 44.7778 53.4563 44.4149 54.1023 43.7689C54.7482 43.123 55.1111 42.2469 55.1111 41.3333V3.44444C55.1111 2.53092 54.7482 1.65481 54.1023 1.00885C53.4563 0.362896 52.5802 0 51.6667 0ZM35.4089 36.0633L23.1811 17.8422L12.2622 33.8244L4.51222 26.9356L6.88889 24.1972L11.5389 28.3133L23.1811 11.2978L35.5639 29.7428L47.6194 13.7778L50.5472 15.9822L35.4089 36.0633Z" fill="white"/>
</svg>
