<svg width="50" height="46" viewBox="0 0 50 46" fill="none" xmlns="http://www.w3.org/2000/svg">
<path d="M13.438 34.933L16.5629 31.0352L6.50337 23.0025L16.5629 14.9698L13.438 11.072L0.938628 21.0536C0.645756 21.2874 0.409324 21.5839 0.246844 21.9213C0.0843642 22.2586 0 22.6282 0 23.0025C0 23.3768 0.0843642 23.7463 0.246844 24.0837C0.409324 24.4211 0.645756 24.7176 0.938628 24.9514L13.438 34.933ZM36.562 11.072L33.4371 14.9698L43.4966 23.0025L33.4371 31.0352L36.562 34.933L49.0614 24.9514C49.3542 24.7176 49.5907 24.4211 49.7532 24.0837C49.9156 23.7463 50 23.3768 50 23.0025C50 22.6282 49.9156 22.2586 49.7532 21.9213C49.5907 21.5839 49.3542 21.2874 49.0614 21.0536L36.562 11.072ZM32.4397 1.083L22.4401 46L17.5578 44.917L27.5574 0L32.4397 1.083Z" fill="white"/>
</svg>
