<svg width="40" height="57" viewBox="0 0 40 57" fill="none" xmlns="http://www.w3.org/2000/svg">
<path fill-rule="evenodd" clip-rule="evenodd" d="M10 0C9.6962 8.54189e-05 9.39642 0.0706127 9.1234 0.206229C8.85038 0.341845 8.6113 0.538987 8.42431 0.78269C8.23732 1.02639 8.10733 1.31025 8.0442 1.61272C7.98108 1.91519 7.98648 2.22833 8.06 2.52836L8.44 4.07143H2C1.46957 4.07143 0.96086 4.28591 0.585787 4.66768C0.210714 5.04945 0 5.56724 0 6.10714V54.9643C0 55.5042 0.210714 56.022 0.585787 56.4038C0.96086 56.7855 1.46957 57 2 57H38C38.5304 57 39.0391 56.7855 39.4142 56.4038C39.7893 56.022 40 55.5042 40 54.9643V6.10714C40 5.56724 39.7893 5.04945 39.4142 4.66768C39.0391 4.28591 38.5304 4.07143 38 4.07143H31.56L31.94 2.52836C32.0135 2.22833 32.0189 1.91519 31.9558 1.61272C31.8927 1.31025 31.7627 1.02639 31.5757 0.78269C31.3887 0.538987 31.1496 0.341845 30.8766 0.206229C30.6036 0.0706127 30.3038 8.54189e-05 30 0H10ZM12.56 4.07143H27.44L26.44 8.14286H13.56L12.56 4.07143ZM22 22.3929V24.4286H8V28.5H22V30.5357H26V28.5H32V24.4286H26V22.3929H22ZM14 34.6071V36.6429H8V40.7143H14V42.75H18V40.7143H32V36.6429H18V34.6071H14Z" fill="white"/>
</svg>
