<svg width="74" height="71" viewBox="0 0 74 71" fill="none" xmlns="http://www.w3.org/2000/svg">
<path d="M59.0588 0H38.127L51.4461 17.7599L59.0588 0ZM14.6638 0L22.2766 17.7599L35.5957 0H14.6638ZM36.8613 6.75053L26.7363 20.25H46.9863L36.8613 6.75053ZM63.2733 3.01535L55.8868 20.25H73.5645L63.2733 3.01535ZM10.4493 3.01535L0 20.25H17.8358L10.4493 3.01535ZM19.5666 25.3125H0.158203L35.4059 70.875H35.4897L19.5666 25.3125ZM54.1561 25.3125L38.233 70.875H38.3168L73.5645 25.3125H54.1561ZM48.4719 25.3125H25.2508L36.8613 58.2188L48.4719 25.3125Z" fill="white"/>
</svg>
