<svg width="52" height="57" viewBox="0 0 52 57" fill="none" xmlns="http://www.w3.org/2000/svg">
<path d="M12.25 53L23.25 19.6667M28.75 19.6667L32.82 31.9972M35.4297 39.9056L39.75 53M26 8.55556C27.4587 8.55556 28.8576 9.14087 29.8891 10.1827C30.9205 11.2246 31.5 12.6377 31.5 14.1111C31.5 15.5845 30.9205 16.9976 29.8891 18.0395C28.8576 19.0813 27.4587 19.6667 26 19.6667C24.5413 19.6667 23.1424 19.0813 22.1109 18.0395C21.0795 16.9976 20.5 15.5845 20.5 14.1111C20.5 12.6377 21.0795 11.2246 22.1109 10.1827C23.1424 9.14087 24.5413 8.55556 26 8.55556ZM26 8.55556V3M4 28C8.1965 36.2083 16.617 41.8889 26 41.8889C35.3775 41.8889 43.8008 36.2 48 28" stroke="white" stroke-width="5.5" stroke-linecap="square" stroke-linejoin="round"/>
</svg>
