<svg width="129" height="52" viewBox="0 0 129 52" fill="none" xmlns="http://www.w3.org/2000/svg">
<path fill-rule="evenodd" clip-rule="evenodd" d="M64.3871 6.21888L52.632 0L40.8789 6.21888H64.3871ZM40.8789 6.21889V18.6519L52.632 24.8727L40.8789 6.21889ZM64.3871 18.6557L52.632 24.8727L64.3871 6.21889V18.6557Z" fill="#F7381A"/>
<path fill-rule="evenodd" clip-rule="evenodd" d="M64.4164 18.6519V6.21888L76.1715 0L64.4164 18.6519L64.4164 18.6519ZM87.9287 18.6519H64.4164L76.1715 24.8726L87.9287 18.6519ZM87.9287 18.6519L76.1715 0L87.9287 6.21603L87.9287 18.6519Z" fill="#358CD9"/>
<path fill-rule="evenodd" clip-rule="evenodd" d="M64.5 41.9993C64.5 35.9218 68.9811 31.9985 75.082 31.9985C81.2825 31.9985 85.6641 35.8287 85.6641 41.9993C85.6641 48.1669 81.2825 52 75.082 52C68.8815 52 64.5 48.1659 64.5 41.9993ZM69.5236 41.9993C69.5236 45.4007 71.8097 47.7731 75.082 47.7731C78.4105 47.7731 80.6424 45.4502 80.6424 41.9993C80.6424 38.4921 78.4617 36.2254 75.082 36.2254C71.8097 36.2254 69.5236 38.5978 69.5236 41.9993ZM24.1875 52L31.8739 32.9986H37.6651L45.3516 52H39.9485L34.769 37.9245L29.5876 52H24.1875ZM8.43986 32.9986L0 52H5.779L13.7251 47.491H7.1932L11.0859 37.6788L16.7684 52H22.1719L13.732 32.9986H8.43986ZM47.3672 32.9986H54.9889C59.1053 32.9986 62.4862 35.0432 62.4844 39.7834C62.4844 44.5275 59.0632 46.8159 55.5112 46.8159L53.3115 43.0042H54.6132C56.3355 43.0042 57.8456 42.0911 57.8456 40.0939C57.8456 38.0996 56.3355 37.1856 54.6132 37.1856H52.219V52H47.3672V32.9986ZM120.562 32.9986H115.265L106.828 52H112.229L117.915 37.6788L121.808 47.491H115.273L123.222 52H129L120.562 32.9986ZM103.14 37.5165C101.777 36.7743 99.9854 36.2358 98.1961 36.2358C95.4473 36.2358 92.7998 38.4878 92.8007 41.9983C92.8007 45.5078 95.4473 47.7608 98.1961 47.7608C99.9854 47.7608 101.776 47.2233 103.14 46.48L104.812 50.2612C102.881 51.3693 100.468 52 98.2708 52C91.3595 52 87.6797 47.1544 87.6797 41.9973C87.6797 36.8403 91.3595 31.9985 98.2708 31.9985C100.468 31.9985 102.881 32.6302 104.812 33.7334L103.14 37.5165Z" fill="#878787"/>
</svg>
