<svg width="39" height="40" viewBox="0 0 39 40" fill="none" xmlns="http://www.w3.org/2000/svg">
<path d="M33.4479 0.124963C33.7533 0.249073 34.0144 0.45926 34.198 0.728938C34.3817 0.998616 34.4797 1.31567 34.4797 1.64V10.916C34.4797 11.3509 34.3036 11.7679 33.9901 12.0754C33.6767 12.3829 33.2515 12.5557 32.8083 12.5557H23.3524C23.0221 12.5554 22.6992 12.4591 22.4246 12.2789C22.15 12.0987 21.936 11.8427 21.8096 11.5433C21.6832 11.2439 21.6501 10.9144 21.7145 10.5966C21.7789 10.2787 21.9378 9.98665 22.1713 9.75735L25.7415 6.25069C22.462 4.9035 18.8212 4.65507 15.3832 5.54389C11.9452 6.43271 8.90203 8.40915 6.72537 11.1669C4.5487 13.9246 3.36006 17.3097 3.34367 20.7974C3.32728 24.2852 4.48405 27.6809 6.6347 30.4582C8.78536 33.2355 11.8098 35.2394 15.2393 36.1592C18.6688 37.0791 22.3118 36.8636 25.6038 35.5462C28.8957 34.2287 31.6528 31.8828 33.4477 28.8721C35.2426 25.8614 35.975 22.354 35.5316 18.8935C35.4856 18.4666 35.6122 18.0391 35.884 17.7028C36.1558 17.3664 36.5512 17.148 36.9853 17.0945C37.4195 17.041 37.8577 17.1566 38.2059 17.4165C38.5541 17.6764 38.7845 18.0599 38.8477 18.4847C39.3901 22.7175 38.4747 27.0068 36.2468 30.6706C34.0189 34.3344 30.6064 37.1625 26.5519 38.7053C22.4974 40.2481 18.0335 40.4171 13.8699 39.1853C9.70622 37.9536 6.08179 35.3918 3.57274 31.9073C1.0637 28.4228 -0.185969 24.2154 0.0224083 19.9542C0.230785 15.6929 1.88524 11.6223 4.72278 8.38934C7.56031 5.15641 11.4181 2.94675 15.6828 2.11163C19.9475 1.2765 24.3744 1.86385 28.2597 3.78029L31.6249 0.479128C31.8587 0.250182 32.1565 0.0943494 32.4805 0.0313139C32.8046 -0.0317217 33.1427 0.000866619 33.4479 0.124963Z" fill="#AEAEAE"/>
</svg>
